<svg version="1.1" xmlns="http://www.w3.org/2000/svg" xmlns:xlink="http://www.w3.org/1999/xlink" width="46.705" height="41.052" viewBox="0,0,256,225.0125"><g fill="#ffffff" fill-rule="nonzero" stroke="none" stroke-width="1" stroke-linecap="butt" stroke-linejoin="miter" stroke-miterlimit="10" stroke-dasharray="" stroke-dashoffset="0" font-family="none" font-weight="none" font-size="none" text-anchor="none" style="mix-blend-mode: normal"><g transform="translate(-0.01218,0.01014) scale(5.48121,5.48121)"><g id="_01"><path transform="translate(-255.75,-124.26)" d="M255.75,165.3v-3.56c0.07353,-0.1133 0.14031,-0.23084 0.2,-0.352c1.09733,-2.634 2.19233,-5.27 3.285,-7.908c0.11888,-0.29261 0.18099,-0.60517 0.183,-0.921c0.01,-9.234 0.013,-18.46733 0.009,-27.7v-0.6h39.39v0.62c0,9.236 0.00233,18.46933 0.007,27.7c0.002,0.30071 0.06105,0.5983 0.174,0.877c1.1,2.683 2.222,5.357 3.335,8.035c0.06346,0.12067 0.10478,0.25175 0.122,0.387c0.01,1.122 0,2.244 0,3.43h-46.155c-0.185,0.003 -0.368,-0.002 -0.55,-0.008zM295.2,151.7v-23.319c0,-0.585 0,-0.587 -0.6,-0.587h-31.568v23.321c0,0.584 0,0.585 0.6,0.585zM284.576,161.7h13.9c-0.01756,-0.08454 -0.03993,-0.16801 -0.067,-0.25c-0.816,-1.963 -1.64,-3.923 -2.439,-5.89c-0.122,-0.3 -0.335,-0.3 -0.583,-0.3c-10.846,0 -21.692,-0.002 -32.538,-0.006c-0.28901,-0.04036 -0.56379,0.13771 -0.645,0.418c-0.761,1.869 -1.546,3.73 -2.317,5.6c-0.055,0.132 -0.093,0.27 -0.146,0.43h13.918v-1.656h10.921z" id="Path_135"></path><path transform="translate(-425.635,-189.297)" d="M461.375,198.33v3.5h-12.145v-3.5z" id="Path_136"></path><path transform="translate(-425.74,-262.237)" d="M449.35,281.4h12.116v3.509h-12.116z" id="Path_137"></path><path transform="translate(-329.866,-169.357)" d="M348.2,175.62l2.729,2.338l-5.823,6.791l-4.948,-4.643l2.459,-2.621l2.207,2.073z" id="Path_138"></path><path transform="translate(-329.866,-242.972)" d="M345.108,268.59l-4.948,-4.645l2.459,-2.619l2.206,2.066l3.378,-3.932l2.728,2.337z" id="Path_139"></path></g></g></g></svg>